<svg width="12" height="12" viewBox="0 0 12 12" fill="none" xmlns="http://www.w3.org/2000/svg">
<g clip-path="url(#clip0)">
<path d="M11.9976 4.58768C11.9963 4.57389 11.9936 4.56028 11.9894 4.54708C11.9866 4.53529 11.9828 4.52378 11.978 4.51267C11.9724 4.50182 11.9657 4.49155 11.958 4.48206C11.9503 4.47079 11.9414 4.4604 11.9314 4.45105C11.9282 4.44826 11.9268 4.44444 11.9234 4.44165L9.99991 2.94779V1.39952C9.99991 1.06815 9.73125 0.799492 9.39988 0.799492H7.23236L6.36449 0.125653C6.1501 -0.0415588 5.84945 -0.0415588 5.63506 0.125653L4.76701 0.799492H2.59949C2.26812 0.799492 1.99946 1.06812 1.99946 1.39952V2.94781L0.0765742 4.44168C0.0731756 4.44449 0.0717693 4.44829 0.0685816 4.45108C0.0586202 4.4604 0.04969 4.47081 0.0419787 4.48208C0.0342908 4.49158 0.0275873 4.50182 0.0219855 4.5127C0.0171337 4.52378 0.0133366 4.53531 0.0105943 4.5471C0.0064222 4.56011 0.00367987 4.57352 0.00239075 4.58711C0.00239075 4.59131 0 4.59492 0 4.59911V11.4C0.000281264 11.5272 0.0414396 11.651 0.117404 11.753C0.1186 11.7548 0.118811 11.757 0.120194 11.7586C0.1216 11.7602 0.1246 11.762 0.126592 11.7642C0.238957 11.9121 0.413716 11.9992 0.599421 12H11.4C11.5864 11.9995 11.7619 11.9119 11.8744 11.7632C11.876 11.7613 11.8784 11.7606 11.8798 11.7586C11.8812 11.7567 11.8814 11.7549 11.8826 11.753C11.9586 11.651 11.9997 11.5272 12 11.4V4.59968C12 4.59548 11.9978 4.59187 11.9976 4.58768ZM5.87967 0.441255C5.94951 0.385752 6.04842 0.385752 6.11827 0.441255L6.57969 0.799468H5.41963L5.87967 0.441255ZM0.649814 11.6L5.87969 7.53762C5.94958 7.48221 6.04842 7.48221 6.1183 7.53762L11.3496 11.6H0.649814ZM11.6 11.2882L6.36449 7.222C6.15005 7.05493 5.8495 7.05493 5.63506 7.222L0.399395 11.2882V4.90429L3.67697 7.44942C3.7643 7.51714 3.88998 7.50125 3.95769 7.41391C4.02541 7.32658 4.00952 7.2009 3.92218 7.13319L0.592413 4.54767L1.99948 3.4542V4.99968C1.99948 5.11015 2.08904 5.19968 2.19949 5.19968C2.30995 5.19968 2.39949 5.11012 2.39949 4.99968V1.3995C2.39949 1.28903 2.48902 1.1995 2.59949 1.1995H9.39983C9.5103 1.1995 9.59983 1.28903 9.59983 1.3995V4.99968C9.59983 5.11015 9.68937 5.19968 9.79983 5.19968C9.9103 5.19968 9.99984 5.11012 9.99984 4.99968V3.4542L11.4069 4.54767L8.07135 7.13781C8.01397 7.18128 7.98437 7.25226 7.99388 7.32363C8.0034 7.395 8.05053 7.45575 8.11731 7.48268C8.18409 7.50961 8.26019 7.4986 8.31656 7.45381L11.5999 4.90429L11.6 11.2882Z" fill="#FF2E6C"/>
<path d="M8.39985 4.79952V3.99949C8.39985 2.67394 7.32528 1.59937 5.99973 1.59937C4.67418 1.59937 3.59961 2.67394 3.59961 3.99949C3.59961 5.32504 4.67418 6.39961 5.99973 6.39961C6.11019 6.39961 6.19973 6.31007 6.19973 6.19961C6.19973 6.08914 6.11019 5.9996 5.99973 5.9996C4.89511 5.9996 3.99964 5.10413 3.99964 3.99951C3.99964 2.89489 4.89511 1.99942 5.99973 1.99942C7.10435 1.99942 7.99982 2.89489 7.99982 3.99951V4.79954C7.99982 5.02048 7.82072 5.19957 7.59979 5.19957C7.37886 5.19957 7.19976 5.02048 7.19976 4.79954V3.99951C7.19976 3.88904 7.11023 3.79951 6.99976 3.79951C6.8893 3.79951 6.79976 3.88904 6.79976 3.99951C6.79976 4.44135 6.44157 4.79954 5.99973 4.79954C5.55789 4.79954 5.1997 4.44135 5.1997 3.99951C5.1997 3.55767 5.55789 3.19948 5.99973 3.19948C6.11019 3.19948 6.19973 3.10994 6.19973 2.99948C6.19973 2.88901 6.11019 2.79947 5.99973 2.79947C5.46263 2.79828 4.99013 3.1541 4.84294 3.67064C4.69574 4.18718 4.90967 4.73863 5.36672 5.02073C5.82377 5.30284 6.4126 5.24692 6.80836 4.88378C6.85191 5.30676 7.21955 5.62126 7.64416 5.59878C8.0688 5.57628 8.40118 5.22475 8.39985 4.79952Z" fill="#FF2E6C"/>
</g>
<defs>
<clipPath id="clip0">
</clipPath>
</defs>
</svg>
