<svg width="17" height="17" viewBox="0 0 17 17" fill="none" xmlns="http://www.w3.org/2000/svg">
<g clip-path="url(#clip0)">
<path d="M16.9966 6.49911C16.9948 6.47958 16.9909 6.46029 16.985 6.4416C16.9811 6.42489 16.9757 6.40859 16.9688 6.39285C16.9609 6.37748 16.9514 6.36293 16.9405 6.34948C16.9296 6.33351 16.9169 6.3188 16.9028 6.30556C16.8983 6.3016 16.8963 6.29619 16.8915 6.29224L14.1665 4.17593V1.98255C14.1665 1.51311 13.7859 1.13251 13.3165 1.13251H10.2458L9.01637 0.177906C8.71264 -0.0589766 8.28672 -0.0589766 7.983 0.177906L6.75326 1.13251H3.68261C3.21316 1.13251 2.83257 1.51307 2.83257 1.98255V4.17596L0.10848 6.29227C0.103665 6.29626 0.101673 6.30164 0.0971573 6.30559C0.0830452 6.3188 0.0703942 6.33355 0.0594698 6.34952C0.0485786 6.36297 0.0390821 6.37748 0.0311461 6.39288C0.0242727 6.40859 0.0188935 6.42493 0.0150086 6.44163C0.00909812 6.46006 0.00521316 6.47905 0.00338689 6.49831C0.00338689 6.50425 0 6.50937 0 6.51531V16.1499C0.000398458 16.3302 0.0587061 16.5055 0.166323 16.65C0.168016 16.6526 0.168315 16.6557 0.170274 16.658C0.172267 16.6602 0.176517 16.6628 0.179339 16.6659C0.338523 16.8753 0.586098 16.9988 0.84918 17H16.15C16.4141 16.9992 16.6627 16.8751 16.8221 16.6645C16.8243 16.6617 16.8277 16.6608 16.8297 16.658C16.8317 16.6552 16.8319 16.6526 16.8337 16.6501C16.9413 16.5055 16.9996 16.3302 17 16.15V6.51611C17 6.51016 16.9969 6.50505 16.9966 6.49911ZM8.32953 0.625009C8.42848 0.54638 8.5686 0.54638 8.66755 0.625009L9.32122 1.13248H7.67782L8.32953 0.625009ZM0.92057 16.4333L8.32956 10.6782C8.42858 10.5997 8.5686 10.5997 8.66758 10.6782L16.0785 16.4333H0.92057ZM16.4333 15.9915L9.01637 10.2311C8.71258 9.99438 8.28679 9.99438 7.983 10.2311L0.56581 15.9915V6.94764L5.20904 10.5532C5.33276 10.6492 5.5108 10.6267 5.60673 10.5029C5.70266 10.3792 5.68015 10.2012 5.55643 10.1052L0.839252 6.44243L2.8326 4.89335V7.08278C2.8326 7.23927 2.95948 7.36612 3.11594 7.36612C3.27243 7.36612 3.39928 7.23924 3.39928 7.08278V1.98252C3.39928 1.82603 3.52612 1.69918 3.68261 1.69918H13.3164C13.4729 1.69918 13.5998 1.82603 13.5998 1.98252V7.08278C13.5998 7.23927 13.7266 7.36612 13.8831 7.36612C14.0396 7.36612 14.1664 7.23924 14.1664 7.08278V4.89335L16.1598 6.44243L11.4344 10.1118C11.3531 10.1734 11.3112 10.2739 11.3247 10.375C11.3381 10.4761 11.4049 10.5622 11.4995 10.6004C11.5941 10.6385 11.7019 10.6229 11.7818 10.5595L16.4332 6.94764L16.4333 15.9915Z" fill="#FF2E6C"/>
<path d="M11.8999 6.79942V5.66604C11.8999 3.78818 10.3776 2.26587 8.49978 2.26587C6.62191 2.26587 5.09961 3.78818 5.09961 5.66604C5.09961 7.54391 6.62191 9.06622 8.49978 9.06622C8.65627 9.06622 8.78311 8.93937 8.78311 8.78288C8.78311 8.62638 8.65627 8.49954 8.49978 8.49954C6.9349 8.49954 5.66632 7.23095 5.66632 5.66608C5.66632 4.1012 6.9349 2.83261 8.49978 2.83261C10.0647 2.83261 11.3332 4.1012 11.3332 5.66608V6.79946C11.3332 7.11244 11.0795 7.36616 10.7665 7.36616C10.4535 7.36616 10.1998 7.11244 10.1998 6.79946V5.66608C10.1998 5.50958 10.073 5.38274 9.91649 5.38274C9.76 5.38274 9.63316 5.50958 9.63316 5.66608C9.63316 6.29202 9.12572 6.79946 8.49978 6.79946C7.87383 6.79946 7.3664 6.29202 7.3664 5.66608C7.3664 5.04013 7.87383 4.5327 8.49978 4.5327C8.65627 4.5327 8.78311 4.40585 8.78311 4.24936C8.78311 4.09286 8.65627 3.96602 8.49978 3.96602C7.73889 3.96433 7.06952 4.46841 6.86099 5.20018C6.65246 5.93195 6.95552 6.71316 7.60302 7.11281C8.25051 7.51246 9.08468 7.43324 9.64534 6.91879C9.70704 7.51801 10.2279 7.96355 10.8294 7.93171C11.431 7.89983 11.9018 7.40182 11.8999 6.79942Z" fill="#FF2E6C"/>
</g>
<defs>
<clipPath id="clip0">
</clipPath>
</defs>
</svg>
