<svg width="41" height="36" viewBox="0 0 41 36" fill="none" xmlns="http://www.w3.org/2000/svg">
<path d="M3.023 18.33C3.042 18.361 3.065 18.389 3.089 18.413L19.007 35.327C19.122 35.449 19.278 35.519 19.451 35.524H19.463C19.626 35.524 19.78 35.462 19.898 35.348L37.28 18.54C37.288 18.534 37.356 18.472 37.397 18.432C37.431 18.4 37.459 18.367 37.465 18.351C39.427 16.319 40.508 13.649 40.508 10.834C40.508 4.86 35.648 0 29.673 0C25.763 0 22.175 2.094 20.254 5.48C18.334 2.093 14.746 0 10.835 0C4.86 0 6.94466e-07 4.86 6.94466e-07 10.834C-0.000999306 13.648 1.078 16.316 3.023 18.33ZM10.834 1.251C14.709 1.251 18.18 3.563 19.676 7.142C19.774 7.375 20 7.525 20.253 7.525C20.505 7.525 20.732 7.375 20.83 7.141C22.327 3.563 25.798 1.251 29.673 1.251C34.958 1.251 39.258 5.551 39.258 10.835C39.258 13.356 38.28 15.739 36.504 17.547C36.487 17.565 36.472 17.582 36.459 17.6L19.483 34.008L4.083 17.65C4.06 17.613 4.033 17.578 4.001 17.546C2.226 15.741 1.249 13.358 1.249 10.835C1.249 5.55 5.549 1.251 10.834 1.251Z" fill="#FF2E6C"/>
</svg>
